<svg width="1200" height="630" viewBox="0 0 1200 630" fill="none" xmlns="http://www.w3.org/2000/svg">
  <style>
    .bg  { fill: var(--brand-500); }
    .ico { stroke: var(--brand-100); stroke-width: 1.6; stroke-linecap: round; stroke-linejoin: round; fill: none; }
    .txt { fill: var(--brand-50); font-family: 'Outfit Variable', Outfit, system-ui, -apple-system, sans-serif; font-weight: 800; }
    .ln  { stroke: var(--brand-300); stroke-width: 1; stroke-opacity: 0.35; }
    .pil { fill: var(--brand-400); fill-opacity: 0.25; stroke: var(--brand-200); stroke-opacity: 0.4; stroke-width: 1; }
    .ptx { fill: var(--brand-100); font-family: 'Outfit Variable', Outfit, system-ui, -apple-system, sans-serif; }
    .cor { stroke: var(--brand-300); stroke-width: 1.5; fill: none; stroke-opacity: 0.45; }
    .frame { fill: none; stroke: var(--brand-200); stroke-opacity: 0.55; stroke-width: 1.5; }
    .chip { fill: var(--brand-300); fill-opacity: 0.30; }
    .chip-alt { fill: var(--brand-100); fill-opacity: 0.85; }
  </style>
  <rect width="1200" height="630" class="bg"/>

  <!-- Schematic page with separate header + footer menus -->
  <g transform="translate(360, 130)">
    <!-- Page frame -->
    <rect x="0" y="0" width="480" height="200" rx="14" class="frame"/>

    <!-- Header bar with 4 chips -->
    <rect x="20" y="20" width="60" height="14" rx="7" class="chip-alt"/>
    <rect x="280" y="22" width="40" height="10" rx="5" class="chip"/>
    <rect x="332" y="22" width="40" height="10" rx="5" class="chip"/>
    <rect x="384" y="22" width="40" height="10" rx="5" class="chip"/>
    <rect x="436" y="22" width="32" height="10" rx="5" class="chip"/>
    <line x1="20" y1="50" x2="460" y2="50" class="ln"/>

    <!-- Body lines -->
    <line x1="20" y1="78" x2="320" y2="78" class="ln"/>
    <line x1="20" y1="98" x2="380" y2="98" class="ln"/>
    <line x1="20" y1="118" x2="280" y2="118" class="ln"/>

    <!-- Divider before footer -->
    <line x1="20" y1="148" x2="460" y2="148" class="ln"/>

    <!-- Footer chips: different set! Privacy, Terms, Contact, Imprint -->
    <rect x="20" y="166" width="50" height="10" rx="5" class="chip"/>
    <rect x="82" y="166" width="40" height="10" rx="5" class="chip"/>
    <rect x="134" y="166" width="56" height="10" rx="5" class="chip-alt"/>
    <rect x="202" y="166" width="48" height="10" rx="5" class="chip-alt"/>
    <rect x="262" y="166" width="40" height="10" rx="5" class="chip-alt"/>
  </g>

  <text x="600" y="410" font-size="86" text-anchor="middle" letter-spacing="-2" class="txt">footer menu</text>
  <line x1="360" y1="436" x2="840" y2="436" class="ln"/>
  <rect x="450" y="464" width="300" height="38" rx="19" class="pil"/>
  <text x="600" y="487" font-size="16" text-anchor="middle" class="ptx">hansmartens.dev</text>
  <path d="M 36 60 L 36 36 L 60 36" class="cor"/>
  <path d="M 1140 36 L 1164 36 L 1164 60" class="cor"/>
  <path d="M 36 570 L 36 594 L 60 594" class="cor"/>
  <path d="M 1140 594 L 1164 594 L 1164 570" class="cor"/>
</svg>
